<svg width="98" height="52" viewBox="0 0 98 52" fill="none" xmlns="http://www.w3.org/2000/svg">
<path fill-rule="evenodd" clip-rule="evenodd" d="M36.0945 0.25C35.5422 0.25 35.0945 0.697715 35.0945 1.25V5.52495C35.0945 6.07724 35.5422 6.52495 36.0945 6.52495H72.4214C82.5484 6.52495 90.5019 14.3216 90.5019 24.4144C90.5019 24.7 90.7334 24.9315 91.0189 24.9315H96.2811C96.5667 24.9315 96.7982 24.7 96.7982 24.4144C96.7982 10.9252 85.9562 0.25 72.4214 0.25H36.0945Z" fill="#6B7B84" stroke="#80949F" stroke-width="0.5"/>
<path fill-rule="evenodd" clip-rule="evenodd" d="M6.63075 25.3699C6.63075 25.1279 6.43452 24.9316 6.19246 24.9316H0.68829C0.446229 24.9316 0.25 25.1279 0.25 25.3699C0.25 39.0193 10.4732 50.2888 23.6927 51.0263L66.0343 51.0641C66.5869 51.0646 67.0352 50.6167 67.0352 50.0641V45.4845C67.0352 44.9322 66.5875 44.4845 66.0352 44.4845H25.1505C14.9142 44.4561 6.63075 35.9408 6.63075 25.3699Z" fill="#6B7B84" stroke="#80949F" stroke-width="0.5"/>
<path fill-rule="evenodd" clip-rule="evenodd" d="M27.6654 39.4501C30.4043 39.4501 32.6856 38.918 34.9388 37.8232L35.0944 37.6777V29.8432L34.2512 30.9226C32.6288 32.6955 30.4499 33.6714 27.9847 33.6714C23.3931 33.6714 18.7815 30.7036 18.7815 25.0315C18.7815 20.7452 21.962 16.1897 27.8233 16.1897C28.9928 16.1897 31.8369 16.4662 34.2471 19.0257L35.0944 20.0694V12.2705L34.9457 12.123C32.6498 10.9724 30.3082 10.4131 27.6376 10.4131C23.0706 10.4131 19.506 11.6154 16.6678 14.0867C14.8674 15.6354 11.8647 19.1062 11.8647 24.95C11.8647 29.2708 13.4033 32.6452 16.6908 35.5721C19.7491 38.2539 23.1402 39.4501 27.6654 39.4501Z" fill="#6B7B84"/>
<path d="M27.6654 39.4501C30.4043 39.4501 32.6856 38.918 34.9388 37.8232L35.0944 37.6777V29.8432L34.2512 30.9226C32.6288 32.6955 30.4499 33.6714 27.9847 33.6714C23.3931 33.6714 18.7815 30.7036 18.7815 25.0315C18.7815 20.7452 21.962 16.1897 27.8233 16.1897C28.9928 16.1897 31.8369 16.4662 34.2471 19.0257L35.0944 20.0694V12.2705L34.9457 12.123C32.6498 10.9724 30.3082 10.4131 27.6376 10.4131C23.0706 10.4131 19.506 11.6154 16.6678 14.0867C14.8674 15.6354 11.8647 19.1062 11.8647 24.95C11.8647 29.2708 13.4033 32.6452 16.6908 35.5721C19.7491 38.2539 23.1402 39.4501 27.6654 39.4501" stroke="#80949F" stroke-width="0.5"/>
<path fill-rule="evenodd" clip-rule="evenodd" d="M47.4352 16.9464H48.7995C50.051 16.9464 51.4773 17.0147 52.5569 17.7506C53.084 18.1271 53.9685 18.9988 53.9685 20.5822C53.9685 21.7522 53.4515 22.8013 52.5974 23.456C51.5024 24.2508 50.2008 24.2052 49.155 24.2052H47.4352V16.9464ZM50.5009 29.4756C53.7323 29.4756 56.2617 28.5435 58.0182 26.7875C60.1789 24.6313 60.5019 21.665 60.5019 20.1013C60.5019 18.428 60.1052 15.1643 57.4451 12.8012C55.2647 10.8905 52.9381 10.4131 49.6563 10.4131H40.9019V39.4501H47.5604V29.4756H50.5009Z" fill="#6B7B84"/>
<path d="M47.4352 16.9464V16.6964H47.1852V16.9464H47.4352ZM52.5569 17.7506L52.7022 17.5471L52.6977 17.544L52.5569 17.7506ZM52.5974 23.456L52.7443 23.6583L52.7495 23.6544L52.5974 23.456ZM47.4352 24.2052H47.1852V24.4552H47.4352V24.2052ZM58.0182 26.7875L57.8416 26.6106L57.8415 26.6107L58.0182 26.7875ZM57.4451 12.8012L57.6112 12.6143L57.6099 12.6132L57.4451 12.8012ZM40.9019 10.4131V10.1631H40.6519V10.4131H40.9019ZM40.9019 39.4501H40.6519V39.7001H40.9019V39.4501ZM47.5604 39.4501V39.7001H47.8104V39.4501H47.5604ZM47.5604 29.4756V29.2256H47.3104V29.4756H47.5604ZM47.4352 17.1964H48.7995V16.6964H47.4352V17.1964ZM48.7995 17.1964C50.0567 17.1964 51.4079 17.2699 52.4161 17.9571L52.6977 17.544C51.5468 16.7595 50.0452 16.6964 48.7995 16.6964V17.1964ZM52.4116 17.954C52.8992 18.3023 53.7185 19.1071 53.7185 20.5822H54.2185C54.2185 18.8906 53.2689 17.9519 52.7022 17.5471L52.4116 17.954ZM53.7185 20.5822C53.7185 21.6781 53.2348 22.6524 52.4453 23.2575L52.7495 23.6544C53.6681 22.9502 54.2185 21.8263 54.2185 20.5822H53.7185ZM52.4506 23.2536C51.4332 23.9921 50.2212 23.9552 49.155 23.9552V24.4552C50.1805 24.4552 51.5716 24.5095 52.7443 23.6583L52.4506 23.2536ZM49.155 23.9552H47.4352V24.4552H49.155V23.9552ZM47.6852 24.2052V16.9464H47.1852V24.2052H47.6852ZM50.5009 29.7256C53.7808 29.7256 56.3803 28.7784 58.195 26.9643L57.8415 26.6107C56.1431 28.3086 53.6838 29.2256 50.5009 29.2256V29.7256ZM58.1948 26.9645C60.4269 24.737 60.7519 21.6865 60.7519 20.1013H60.2519C60.2519 21.6436 59.931 24.5255 57.8416 26.6106L58.1948 26.9645ZM60.7519 20.1013C60.7519 18.3999 60.3502 15.0475 57.6112 12.6143L57.2791 12.9881C59.8602 15.2811 60.2519 18.4561 60.2519 20.1013H60.7519ZM57.6099 12.6132C55.3639 10.6451 52.9657 10.1631 49.6563 10.1631V10.6631C52.9106 10.6631 55.1654 11.136 57.2804 12.9892L57.6099 12.6132ZM49.6563 10.1631H40.9019V10.6631H49.6563V10.1631ZM40.6519 10.4131V39.4501H41.1519V10.4131H40.6519ZM40.9019 39.7001H47.5604V39.2001H40.9019V39.7001ZM47.8104 39.4501V29.4756H47.3104V39.4501H47.8104ZM47.5604 29.7256H50.5009V29.2256H47.5604V29.7256Z" fill="#80949F"/>
<path fill-rule="evenodd" clip-rule="evenodd" d="M80.4769 24.1264C79.0293 22.8438 77.0085 22.1002 74.715 21.329C73.0808 20.7604 72.1804 20.4471 71.5802 19.8998C71.1064 19.4976 70.8951 19.061 70.8951 18.4839C70.8951 17.2199 71.754 15.869 74.1653 15.869C75.804 15.869 77.1761 16.5697 78.2436 17.9508L78.6674 18.4991L82.1837 14.0233L81.8631 13.7022C79.7126 11.5502 76.8788 10.4131 73.6679 10.4131C67.1896 10.4131 64.2897 14.6276 64.2897 18.8046C64.2897 21.046 65.089 22.8537 66.6606 24.1752C68.0676 25.3811 69.7835 26.0568 71.4293 26.6084L71.6154 26.6701C73.0769 27.1532 74.5885 27.6531 75.4913 28.4611C76.1194 29.0382 76.3993 29.6654 76.3993 30.4944C76.3993 32.3945 74.903 33.6714 72.676 33.6714C70.9156 33.6714 68.5975 32.8085 67.3711 30.3874L67.0503 29.753L62.6797 33.7988L62.9374 34.1634C64.3319 36.1378 67.4784 39.4501 72.8833 39.4501C78.843 39.4501 83.0056 35.6186 83.0056 30.1328C83.0056 26.9951 81.629 25.1329 80.4769 24.1264Z" fill="#6B7B84"/>
<path d="M80.4769 24.1264C79.0293 22.8438 77.0085 22.1002 74.715 21.329C73.0808 20.7604 72.1804 20.4471 71.5802 19.8998C71.1064 19.4976 70.8951 19.061 70.8951 18.4839C70.8951 17.2199 71.754 15.869 74.1653 15.869C75.804 15.869 77.1761 16.5697 78.2436 17.9508L78.6674 18.4991L82.1837 14.0233L81.8631 13.7022C79.7126 11.5502 76.8788 10.4131 73.6679 10.4131C67.1896 10.4131 64.2897 14.6276 64.2897 18.8046C64.2897 21.046 65.089 22.8537 66.6606 24.1752C68.0676 25.3811 69.7835 26.0568 71.4293 26.6084L71.6154 26.6701C73.0769 27.1532 74.5885 27.6531 75.4913 28.4611C76.1194 29.0382 76.3993 29.6654 76.3993 30.4944C76.3993 32.3945 74.903 33.6714 72.676 33.6714C70.9156 33.6714 68.5975 32.8085 67.3711 30.3874L67.0503 29.753L62.6797 33.7988L62.9374 34.1634C64.3319 36.1378 67.4784 39.4501 72.8833 39.4501C78.843 39.4501 83.0056 35.6186 83.0056 30.1328C83.0056 26.9951 81.629 25.1329 80.4769 24.1264" stroke="#80949F" stroke-width="0.5"/>
</svg>
